<?xml version="1.0"?>
<svg version="1.1" xmlns="http://www.w3.org/2000/svg" xmlns:xlink="http://www.w3.org/1999/xlink" width="512" height="512">
    <desc iVinci="yes" version="4.6" gridStep="20" showGrid="no" snapToGrid="no" codePlatform="0"/>
    <g id="Layer1" name="Layer 1" opacity="1">
        <g id="Shape1">
            <desc shapeID="1" type="0" basicInfo-basicType="0" basicInfo-roundedRectRadius="12" basicInfo-polygonSides="6" basicInfo-starPoints="5" bounding="rect(-7.5005,-7,15.001,14)" text="" font-familyName="" font-pixelSize="20" font-bold="0" font-underline="0" font-alignment="1" strokeStyle="0" markerStart="0" markerEnd="0" shadowEnabled="0" shadowOffsetX="0" shadowOffsetY="2" shadowBlur="4" shadowOpacity="160" blurEnabled="0" blurRadius="4" transform="matrix(34.1311,0,0,36.5714,256,256)" pers-center="0,0" pers-size="0,0" pers-start="0,0" pers-end="0,0" locked="0" mesh="" flag=""/>
            <path id="shapePath1" d="M158.129,256 C129.323,256.951 105.772,269.141 87.4779,292.571 L51.7427,292.571 C37.1573,292.571 24.8929,288.719 14.9494,281.015 C5.00584,273.31 0.0227203,262.022 -3.05176e-05,247.15 C-3.05176e-05,179.907 11.0243,146.286 33.073,146.286 C34.1424,146.286 38.0106,148.285 44.6775,152.283 C51.3445,156.282 60.0137,160.329 70.6854,164.425 C81.357,168.521 91.9377,170.569 102.427,170.569 C114.328,170.569 126.148,168.375 137.889,163.986 C137.002,171.032 136.558,177.323 136.558,182.857 C136.558,209.335 143.76,233.716 158.163,256 L158.129,256 M443.704,438.016 C443.704,460.861 437.219,478.903 424.249,492.142 C411.279,505.381 394.032,512 372.506,512 L139.459,512 C117.957,512 100.709,505.381 87.7168,492.142 C74.7242,478.903 68.2393,460.861 68.2621,438.016 C68.2621,427.922 68.5693,418.06 69.1836,408.43 C69.798,398.799 71.0381,388.413 72.9039,377.271 C74.7697,366.129 77.1248,355.791 79.969,346.258 C82.8133,336.725 86.636,327.436 91.4371,318.391 C96.2382,309.346 101.745,301.629 107.956,295.241 C114.168,288.853 121.768,283.758 130.756,279.954 C139.744,276.151 149.653,274.249 160.484,274.249 C162.259,274.249 166.082,276.297 171.952,280.393 C177.823,284.489 184.308,289.061 191.407,294.107 C198.506,299.154 208.017,303.726 219.94,307.822 C231.864,311.918 243.866,313.966 255.949,313.966 C268.031,313.966 280.034,311.918 291.957,307.822 C303.88,303.726 313.391,299.154 320.491,294.107 C327.59,289.061 334.075,284.489 339.945,280.393 C345.816,276.297 349.639,274.249 351.413,274.249 C362.267,274.249 372.176,276.151 381.141,279.954 C390.107,283.758 397.706,288.853 403.941,295.241 C410.176,301.629 415.682,309.346 420.46,318.391 C425.239,327.436 429.061,336.725 431.928,346.258 C434.796,355.791 437.151,366.129 438.994,377.271 C440.837,388.413 442.077,398.799 442.714,408.43 C443.351,418.06 443.658,427.922 443.635,438.016 L443.704,438.016 M170.655,73.1429 C170.655,93.3303 163.988,110.568 150.654,124.855 C137.321,139.142 121.233,146.286 102.393,146.286 C83.5528,146.286 67.4657,139.142 54.1318,124.855 C40.798,110.568 34.131,93.3303 34.131,73.1429 C34.131,52.9554 40.798,35.7181 54.1318,21.4308 C67.4657,7.14362 83.5528,0 102.393,0 C121.233,0 137.321,7.14362 150.654,21.4308 C163.988,35.7181 170.655,52.9554 170.655,73.1429 M358.376,182.857 C358.376,213.138 348.376,238.994 328.375,260.425 C308.374,281.856 284.243,292.571 255.983,292.571 C227.722,292.571 203.592,281.856 183.591,260.425 C163.59,238.994 153.59,213.138 153.59,182.857 C153.59,152.576 163.59,126.72 183.591,105.289 C203.592,83.8583 227.722,73.1429 255.983,73.1429 C284.243,73.1429 308.374,83.8583 328.375,105.289 C348.376,126.72 358.376,152.576 358.376,182.857 M511.966,247.15 C511.966,261.998 506.983,273.286 497.016,281.015 C487.05,288.744 474.786,292.596 460.223,292.571 L424.488,292.571 C406.171,269.141 382.62,256.951 353.837,256 C368.24,233.716 375.442,209.335 375.442,182.857 C375.442,177.323 374.998,171.032 374.111,163.986 C385.852,168.375 397.672,170.569 409.573,170.569 C420.062,170.569 430.643,168.521 441.315,164.425 C451.986,160.329 460.655,156.282 467.322,152.283 C473.989,148.285 477.858,146.286 478.927,146.286 C500.976,146.286 512,179.907 512,247.15 L511.966,247.15 M477.835,73.1429 C477.835,93.3303 471.168,110.568 457.834,124.855 C444.5,139.142 428.413,146.286 409.573,146.286 C390.732,146.286 374.645,139.142 361.311,124.855 C347.977,110.568 341.311,93.3303 341.311,73.1429 C341.311,52.9554 347.977,35.7181 361.311,21.4308 C374.645,7.14362 390.732,0 409.573,0 C428.413,0 444.5,7.14362 457.834,21.4308 C471.168,35.7181 477.835,52.9554 477.835,73.1429 Z" style="stroke:none;fill-rule:nonzero;fill:#444444;fill-opacity:1;"/>
        </g>
    </g>
</svg>
