<?xml version="1.0"?>
<svg version="1.1" xmlns="http://www.w3.org/2000/svg" xmlns:xlink="http://www.w3.org/1999/xlink" width="1000" height="1000">
    <desc iVinci="yes" version="4.6" gridStep="20" showGrid="no" snapToGrid="no" codePlatform="0"/>
    <g id="Layer1" name="Layer 1" opacity="1">
        <g id="Shape1">
            <desc shapeID="1" type="0" basicInfo-basicType="2" basicInfo-roundedRectRadius="12" basicInfo-polygonSides="6" basicInfo-starPoints="5" bounding="rect(-477.658,-481.625,955.316,963.251)" text="" font-familyName="Vollkorn" font-pixelSize="100" font-bold="1" font-underline="0" font-alignment="1" strokeStyle="0" markerStart="0" markerEnd="0" shadowEnabled="0" shadowOffsetX="0" shadowOffsetY="2" shadowBlur="4" shadowOpacity="160" blurEnabled="0" blurRadius="4" transform="matrix(1.03016,0,0,1.02168,500,500)" pers-center="0,0" pers-size="0,0" pers-start="0,0" pers-end="0,0" locked="0" mesh="" flag=""/>
            <path id="shapePath1" d="M7.93457,20.1946 C7.93457,13.4235 13.4692,7.93445 20.2965,7.93445 L979.704,7.93445 C986.531,7.93445 992.065,13.4235 992.065,20.1946 L992.065,979.805 C992.065,986.576 986.531,992.065 979.704,992.065 L20.2965,992.065 C13.4692,992.065 7.93457,986.576 7.93457,979.805 L7.93457,20.1946 Z" style="stroke:#323232;stroke-opacity:1;stroke-width:6;stroke-linejoin:miter;stroke-miterlimit:2;stroke-linecap:round;fill-rule:evenodd;fill:#000000;fill-opacity:0;"/>
        </g>
        <g id="Shape2">
            <desc shapeID="2" type="2" basicInfo-basicType="0" basicInfo-roundedRectRadius="12" basicInfo-polygonSides="6" basicInfo-starPoints="5" bounding="rect(-338.804,-349.912,677.608,699.825)" text="M" font-familyName="Vollkorn" font-pixelSize="500" font-bold="0" font-underline="0" font-alignment="1" strokeStyle="0" markerStart="0" markerEnd="0" shadowEnabled="0" shadowOffsetX="0" shadowOffsetY="2" shadowBlur="4" shadowOpacity="160" blurEnabled="0" blurRadius="4" transform="matrix(1,0,0,1,366.53,486.922)" pers-center="0,0" pers-size="0,0" pers-start="0,0" pers-end="0,0" locked="0" mesh="" flag=""/>
            <path id="shapePath2" d="M581.78,667.5 C566.447,666.5 546.447,666 521.78,666 C498.114,666 477.78,666.5 460.78,667.5 C460.78,659.5 461.78,652.333 463.78,646 C476.447,644.667 484.947,641.833 489.28,637.5 C493.614,633.167 495.78,625.167 495.78,613.5 C495.78,606.833 495.28,598.5 494.28,588.5 L476.28,417 L372.78,667 C367.114,669.333 360.28,670.5 352.28,670.5 L235.78,417.5 L219.78,578 C218.78,588 218.28,596.667 218.28,604 C218.28,619.333 220.864,629.917 226.03,635.75 C231.197,641.583 239.947,645 252.28,646 C253.947,651.667 254.78,658.833 254.78,667.5 C238.78,666.5 220.947,666 201.28,666 C181.614,666 164.947,666.5 151.28,667.5 C151.28,659.167 152.114,652 153.78,646 C163.114,645 170.28,642.667 175.28,639 C180.28,635.333 184.197,628.583 187.03,618.75 C189.864,608.917 192.28,593.833 194.28,573.5 L210.28,395.5 C210.614,392.5 210.78,388.5 210.78,383.5 C210.78,370.5 208.114,361.333 202.78,356 C197.447,350.667 188.78,348 176.78,348 C175.114,342.667 174.28,335.5 174.28,326.5 C184.28,327.5 196.947,328 212.28,328 C224.614,328 237.28,327.5 250.28,326.5 L375.28,603 L484.28,326.5 C495.614,327.5 508.614,328 523.28,328 C535.28,328 547.947,327.5 561.28,326.5 C561.28,334.5 560.447,341.667 558.78,348 C547.447,348 538.864,350.833 533.03,356.5 C527.197,362.167 524.28,372 524.28,386 C524.28,391.333 524.447,395.5 524.78,398.5 L542.78,582 C544.447,598.667 546.614,611.417 549.28,620.25 C551.947,629.083 555.614,635.333 560.28,639 C564.947,642.667 571.28,644.833 579.28,645.5 C580.947,651.167 581.78,658.5 581.78,667.5 Z" style="stroke:none;fill-rule:nonzero;fill:#000000;fill-opacity:1;"/>
        </g>
        <g id="Shape3">
            <desc shapeID="3" type="2" basicInfo-basicType="0" basicInfo-roundedRectRadius="12" basicInfo-polygonSides="6" basicInfo-starPoints="5" bounding="rect(-338.804,-349.912,677.608,699.825)" text="C" font-familyName="Vollkorn" font-pixelSize="500" font-bold="1" font-underline="0" font-alignment="1" strokeStyle="0" markerStart="0" markerEnd="0" shadowEnabled="0" shadowOffsetX="0" shadowOffsetY="2" shadowBlur="4" shadowOpacity="160" blurEnabled="0" blurRadius="4" transform="matrix(1,0,0,1,704.72,489.922)" pers-center="0,0" pers-size="0,0" pers-start="0,0" pers-end="0,0" locked="0" mesh="" flag=""/>
            <path id="shapePath3" d="M836.22,430 C828.553,434 815.553,436 797.22,436 C796.553,407.333 790.886,387 780.22,375 C769.553,363 754.22,357 734.22,357 C702.886,357 679.72,369.167 664.72,393.5 C649.72,417.833 642.22,448.333 642.22,485 C642.22,529 651.803,564.833 670.97,592.5 C690.136,620.167 717.72,634 753.72,634 C767.053,634 780.886,631.833 795.22,627.5 C809.553,623.167 823.553,617 837.22,609 C839.886,611.333 842.303,614.583 844.47,618.75 C846.636,622.917 848.053,627 848.72,631 C832.053,644.667 813.97,655.167 794.47,662.5 C774.97,669.833 752.72,673.5 727.72,673.5 C695.386,673.5 666.636,666.083 641.47,651.25 C616.303,636.417 596.72,615.75 582.72,589.25 C568.72,562.75 561.72,532.333 561.72,498 C561.72,461.667 569.553,430.583 585.22,404.75 C600.886,378.917 621.636,359.417 647.47,346.25 C673.303,333.083 701.386,326.5 731.72,326.5 C768.72,326.5 805.386,335.167 841.72,352.5 C838.053,373.5 836.22,399.333 836.22,430 Z" style="stroke:none;fill-rule:nonzero;fill:#000000;fill-opacity:1;"/>
        </g>
    </g>
</svg>
