<?xml version="1.0"?>
<svg version="1.1" xmlns="http://www.w3.org/2000/svg" xmlns:xlink="http://www.w3.org/1999/xlink" width="300" height="300">
    <desc iVinci="yes" version="4.6" gridStep="20" showGrid="no" snapToGrid="no" codePlatform="0"/>
    <g id="Layer1" name="Layer 1" opacity="1">
        <g id="Shape1">
            <desc shapeID="1" type="0" basicInfo-basicType="0" basicInfo-roundedRectRadius="12" basicInfo-polygonSides="6" basicInfo-starPoints="5" bounding="rect(-7.50049,-7.00001,15.001,14)" text="" font-familyName="" font-pixelSize="20" font-bold="0" font-underline="0" font-alignment="1" strokeStyle="0" markerStart="0" markerEnd="0" shadowEnabled="0" shadowOffsetX="0" shadowOffsetY="2" shadowBlur="4" shadowOpacity="160" blurEnabled="0" blurRadius="4" transform="matrix(19.9987,0,0,21.4286,150,150)" pers-center="0,0" pers-size="0,0" pers-start="0,0" pers-end="0,0" locked="0" mesh="" flag=""/>
            <path id="shapePath1" d="M92.6537,150 C75.7752,150.557 61.9758,157.7 51.2566,171.428 L30.318,171.428 C21.7719,171.428 14.5857,169.171 8.75945,164.657 C2.93314,160.143 0.0133362,153.529 1.52588e-05,144.814 C1.52588e-05,105.414 6.45958,85.7144 19.3787,85.7144 C20.0053,85.7144 22.2719,86.8857 26.1783,89.2283 C30.0847,91.5715 35.1643,93.9428 41.4173,96.3428 C47.6701,98.7428 53.8698,99.9428 60.0158,99.9428 C66.9891,99.9428 73.9149,98.6572 80.7944,96.0855 C80.2746,100.214 80.0145,103.9 80.0145,107.143 C80.0145,122.657 84.2344,136.943 92.6736,150 L92.6537,150 M259.983,256.65 C259.983,270.036 256.183,280.607 248.583,288.364 C240.984,296.122 230.878,300 218.265,300 L81.7143,300 C69.1154,300 59.0092,296.122 51.3966,288.364 C43.7837,280.607 39.984,270.036 39.9973,256.65 C39.9973,250.736 40.1774,244.957 40.5373,239.314 C40.8973,233.671 41.6239,227.586 42.7172,221.057 C43.8104,214.529 45.1903,208.471 46.8569,202.886 C48.5234,197.3 50.7633,191.857 53.5765,186.557 C56.3896,181.257 59.6162,176.736 63.2555,172.993 C66.8953,169.25 71.3485,166.264 76.6149,164.036 C81.8813,161.807 87.6873,160.693 94.0336,160.693 C95.0737,160.693 97.3137,161.893 100.753,164.293 C104.193,166.693 107.993,169.372 112.153,172.328 C116.312,175.286 121.885,177.964 128.871,180.364 C135.858,182.764 142.89,183.964 149.97,183.964 C157.049,183.964 164.082,182.764 171.069,180.364 C178.055,177.964 183.628,175.286 187.788,172.328 C191.947,169.372 195.747,166.693 199.187,164.293 C202.627,161.893 204.867,160.693 205.906,160.693 C212.266,160.693 218.072,161.807 223.325,164.036 C228.578,166.264 233.031,169.25 236.684,172.993 C240.337,176.736 243.564,181.257 246.363,186.557 C249.163,191.857 251.403,197.3 253.083,202.886 C254.763,208.471 256.143,214.529 257.223,221.057 C258.303,227.586 259.029,233.671 259.403,239.314 C259.776,244.957 259.956,250.736 259.942,256.65 L259.983,256.65 M99.9932,42.8572 C99.9932,54.6857 96.0867,64.7859 88.2738,73.1572 C80.4615,81.5285 71.035,85.7144 59.9959,85.7144 C48.9567,85.7144 39.5307,81.5285 31.7179,73.1572 C23.9051,64.7859 19.9987,54.6857 19.9987,42.8572 C19.9987,31.0285 23.9051,20.9286 31.7179,12.5571 C39.5307,4.1857 48.9567,-1.52588e-05 59.9959,-1.52588e-05 C71.035,-1.52588e-05 80.4615,4.1857 88.2738,12.5571 C96.0867,20.9286 99.9932,31.0285 99.9932,42.8572 M209.986,107.143 C209.986,124.886 204.127,140.036 192.407,152.593 C180.688,165.15 166.549,171.428 149.99,171.428 C133.431,171.428 119.292,165.15 107.573,152.593 C95.8535,140.036 89.9942,124.886 89.9942,107.143 C89.9942,89.4 95.8535,74.25 107.573,61.6928 C119.292,49.1357 133.431,42.8572 149.99,42.8572 C166.549,42.8572 180.688,49.1357 192.407,61.6928 C204.127,74.25 209.986,89.4 209.986,107.143 M299.98,144.814 C299.98,153.514 297.06,160.129 291.22,164.657 C285.381,169.186 278.195,171.443 269.662,171.428 L248.723,171.428 C237.991,157.7 224.191,150.557 207.326,150 C215.766,136.943 219.986,122.657 219.986,107.143 C219.986,103.9 219.725,100.214 219.206,96.0855 C226.085,98.6572 233.011,99.9428 239.984,99.9428 C246.13,99.9428 252.33,98.7428 258.583,96.3428 C264.836,93.9428 269.915,91.5715 273.821,89.2283 C277.728,86.8857 279.995,85.7144 280.621,85.7144 C293.541,85.7144 300,105.414 300,144.814 L299.98,144.814 M279.981,42.8572 C279.981,54.6857 276.075,64.7859 268.262,73.1572 C260.449,81.5285 251.023,85.7144 239.984,85.7144 C228.945,85.7144 219.519,81.5285 211.706,73.1572 C203.893,64.7859 199.987,54.6857 199.987,42.8572 C199.987,31.0285 203.893,20.9286 211.706,12.5571 C219.519,4.1857 228.945,-1.52588e-05 239.984,-1.52588e-05 C251.023,-1.52588e-05 260.449,4.1857 268.262,12.5571 C276.075,20.9286 279.981,31.0285 279.981,42.8572 Z" style="stroke:none;fill-rule:evenodd;fill:#444444;fill-opacity:1;"/>
        </g>
    </g>
</svg>
