<?xml version="1.0"?>
<svg version="1.1" xmlns="http://www.w3.org/2000/svg" xmlns:xlink="http://www.w3.org/1999/xlink" width="1000" height="250">
    <desc iVinci="yes" version="4.6" gridStep="20" showGrid="no" snapToGrid="no" codePlatform="0"/>
    <g id="Layer1" name="Layer 1" opacity="1">
        <g id="Shape1">
            <desc shapeID="1" type="2" basicInfo-basicType="0" basicInfo-roundedRectRadius="12" basicInfo-polygonSides="6" basicInfo-starPoints="5" bounding="rect(-500,-62.5,1000,125)" text="      M   A   S   T   E   R     " font-familyName="Vollkorn" font-pixelSize="100" font-bold="0" font-underline="0" font-alignment="1" strokeStyle="0" markerStart="0" markerEnd="0" shadowEnabled="0" shadowOffsetX="0" shadowOffsetY="2" shadowBlur="4" shadowOpacity="160" blurEnabled="0" blurRadius="4" transform="matrix(1,0,0,1,499.992,72.8031)" pers-center="0,0" pers-size="0,0" pers-start="0,0" pers-end="0,0" locked="0" mesh="" flag=""/>
            <path id="shapePath1" d="M249.717,108.4 C246.65,108.2 242.65,108.1 237.717,108.1 C232.984,108.1 228.917,108.2 225.517,108.4 C225.517,106.8 225.717,105.367 226.117,104.1 C228.65,103.833 230.35,103.267 231.217,102.4 C232.084,101.533 232.517,99.9333 232.517,97.6 C232.517,96.2666 232.417,94.6 232.217,92.6 L228.617,58.3 L207.917,108.3 C206.784,108.767 205.417,109 203.817,109 L180.517,58.4 L177.317,90.5 C177.117,92.5 177.017,94.2333 177.017,95.7 C177.017,98.7666 177.534,100.883 178.567,102.05 C179.6,103.217 181.35,103.9 183.817,104.1 C184.15,105.233 184.317,106.667 184.317,108.4 C181.117,108.2 177.55,108.1 173.617,108.1 C169.684,108.1 166.35,108.2 163.617,108.4 C163.617,106.733 163.784,105.3 164.117,104.1 C165.984,103.9 167.417,103.433 168.417,102.7 C169.417,101.967 170.2,100.617 170.767,98.65 C171.334,96.6833 171.817,93.6666 172.217,89.6 L175.417,54 C175.484,53.4 175.517,52.6 175.517,51.6 C175.517,49 174.984,47.1666 173.917,46.1 C172.85,45.0333 171.117,44.5 168.717,44.5 C168.384,43.4333 168.217,42 168.217,40.2 C170.217,40.4 172.75,40.5 175.817,40.5 C178.284,40.5 180.817,40.4 183.417,40.2 L208.417,95.5 L230.217,40.2 C232.484,40.4 235.084,40.5 238.017,40.5 C240.417,40.5 242.95,40.4 245.617,40.2 C245.617,41.8 245.45,43.2333 245.117,44.5 C242.85,44.5 241.134,45.0666 239.967,46.2 C238.8,47.3333 238.217,49.3 238.217,52.1 C238.217,53.1666 238.25,54 238.317,54.6 L241.917,91.3 C242.25,94.6333 242.684,97.1833 243.217,98.95 C243.75,100.717 244.484,101.967 245.417,102.7 C246.35,103.433 247.617,103.867 249.217,104 C249.55,105.133 249.717,106.6 249.717,108.4 M381.111,108.4 C377.111,108.2 373.311,108.1 369.711,108.1 C366.177,108.1 362.411,108.2 358.411,108.4 C358.411,106.467 358.644,105.033 359.111,104.1 C360.977,103.9 362.294,103.6 363.061,103.2 C363.827,102.8 364.211,102.133 364.211,101.2 C364.211,100.4 363.711,98.7666 362.711,96.3 L358.311,86.1 C347.711,86.1 338.911,86.2333 331.911,86.5 L329.211,93.4 C328.144,96.2 327.611,98.4 327.611,100 C327.611,101.333 328.027,102.317 328.861,102.95 C329.694,103.583 331.011,103.967 332.811,104.1 C333.277,105.233 333.511,106.667 333.511,108.4 C331.244,108.2 328.077,108.1 324.011,108.1 C322.277,108.1 319.511,108.2 315.711,108.4 C315.711,106.733 315.944,105.333 316.411,104.2 C318.144,103.867 319.511,103 320.511,101.6 C321.511,100.2 322.811,97.4666 324.411,93.4 L345.111,40.3 C346.244,40.0333 347.544,39.9 349.011,39.9 L372.811,94.5 C374.477,98.2333 375.794,100.7 376.761,101.9 C377.727,103.1 378.977,103.833 380.511,104.1 C380.911,105.433 381.111,106.867 381.111,108.4 M348.811,63.8 C346.744,59.0666 345.244,55.4333 344.311,52.9 C343.577,55.4333 342.344,59.0333 340.611,63.7 L333.711,81.6 L356.411,81.6 L348.811,63.8 M481.101,40.85 C484.101,41.6833 486.535,42.7333 488.401,44 C488.401,49.9333 488.601,54.3333 489.001,57.2 C487.535,57.8 485.668,58.1 483.401,58.1 C482.468,52.6333 481.068,48.9166 479.201,46.95 C477.335,44.9833 474.801,44 471.601,44 C468.068,44 465.301,44.8666 463.301,46.6 C461.301,48.3333 460.301,50.7666 460.301,53.9 C460.301,56.5 460.985,58.7333 462.351,60.6 C463.718,62.4666 465.385,64 467.351,65.2 C469.318,66.4 472.035,67.8666 475.501,69.6 C479.435,71.4666 482.585,73.1666 484.951,74.7 C487.318,76.2333 489.335,78.2333 491.001,80.7 C492.668,83.1666 493.501,86.2 493.501,89.8 C493.501,93.2666 492.685,96.45 491.051,99.35 C489.418,102.25 486.885,104.583 483.451,106.35 C480.018,108.117 475.768,109 470.701,109 C466.835,109 463.368,108.483 460.301,107.45 C457.235,106.417 453.935,104.8 450.401,102.6 C451.001,98.8666 451.301,94.1333 451.301,88.4 C452.835,88 454.635,87.8 456.701,87.8 C456.968,93.1333 458.318,97.2 460.751,100 C463.185,102.8 466.968,104.2 472.101,104.2 C476.435,104.2 479.651,103.25 481.751,101.35 C483.851,99.45 484.901,96.9333 484.901,93.8 C484.901,91.2 484.235,89 482.901,87.2 C481.568,85.4 479.935,83.9166 478.001,82.75 C476.068,81.5833 473.368,80.2 469.901,78.6 C465.901,76.6666 462.701,74.9333 460.301,73.4 C457.901,71.8666 455.851,69.8166 454.151,67.25 C452.451,64.6833 451.601,61.4666 451.601,57.6 C451.601,52 453.401,47.6 457.001,44.4 C460.601,41.2 465.501,39.6 471.701,39.6 C474.968,39.6 478.101,40.0166 481.101,40.85 M610.989,43.8 C610.989,46.4666 611.222,50.6 611.689,56.2 C610.289,56.8666 608.622,57.1666 606.689,57.1 C606.555,52.9 605.589,49.7333 603.789,47.6 C601.989,45.4666 599.189,44.4 595.389,44.4 L590.089,44.4 L590.089,95.4 C590.089,97.7333 590.289,99.4833 590.689,100.65 C591.089,101.817 591.839,102.65 592.939,103.15 C594.039,103.65 595.689,103.967 597.889,104.1 C598.222,105.033 598.389,106.467 598.389,108.4 C594.122,108.2 589.755,108.1 585.289,108.1 C580.289,108.1 575.922,108.2 572.189,108.4 C572.189,106.467 572.355,105.033 572.689,104.1 C574.889,103.967 576.555,103.65 577.689,103.15 C578.822,102.65 579.605,101.8 580.039,100.6 C580.472,99.4 580.689,97.6666 580.689,95.4 L580.689,44.4 L575.589,44.4 C572.522,44.4 570.156,44.9 568.489,45.9 C566.822,46.9 565.639,48.25 564.939,49.95 C564.239,51.65 563.622,54.0333 563.089,57.1 C560.889,57.1 559.289,56.8 558.289,56.2 C559.355,50.2 559.889,44.8666 559.889,40.2 C563.622,40.4 572.122,40.5 585.389,40.5 C598.855,40.5 607.422,40.4 611.089,40.2 L610.989,43.8 M727.289,93.4 C726.022,97.3333 724.989,102.3 724.189,108.3 C718.989,108.167 711.855,108.1 702.789,108.1 C690.522,108.1 681.889,108.2 676.889,108.4 C676.889,106.467 677.055,105.033 677.389,104.1 C679.255,103.967 680.672,103.633 681.639,103.1 C682.605,102.567 683.289,101.633 683.689,100.3 C684.089,98.9666 684.289,96.9666 684.289,94.3 L684.289,53.2 C684.289,49.8666 683.805,47.6166 682.839,46.45 C681.872,45.2833 680.055,44.6333 677.389,44.5 C677.055,43.5666 676.889,42.1333 676.889,40.2 C680.822,40.4 686.422,40.5 693.689,40.5 C705.822,40.5 715.189,40.4 721.789,40.2 C722.456,47.5333 723.156,52.8 723.889,56 C722.889,56.8 721.389,57.2 719.389,57.2 C719.055,53.4666 717.706,50.4166 715.339,48.05 C712.972,45.6833 708.855,44.5 702.989,44.5 L693.689,44.5 L693.689,71.9 L699.989,71.9 C704.189,71.9 707.072,71.35 708.639,70.25 C710.206,69.15 711.022,67 711.089,63.8 C712.689,63.3333 714.289,63.1 715.889,63.1 C715.755,65.3666 715.689,69 715.689,74 C715.689,79.4666 715.755,83.3333 715.889,85.6 C714.089,85.6 712.555,85.4333 711.289,85.1 C711.022,81.6333 710.105,79.2833 708.539,78.05 C706.972,76.8166 704.122,76.2 699.989,76.2 L693.689,76.2 L693.689,94.3 C693.689,96.8333 693.922,98.75 694.389,100.05 C694.855,101.35 695.739,102.267 697.039,102.8 C698.339,103.333 700.255,103.6 702.789,103.6 L703.389,103.6 C707.989,103.6 711.522,103.133 713.989,102.2 C716.456,101.267 718.272,99.9666 719.439,98.3 C720.605,96.6333 721.755,94.2 722.889,91 C724.822,91.6 726.289,92.4 727.289,93.4 M849.083,100.9 C851.349,102.9 854.083,103.967 857.283,104.1 C857.283,106.033 857.149,107.467 856.883,108.4 C850.349,108.4 845.116,108.6 841.183,109 C838.783,105.2 835.916,100.033 832.583,93.5 C829.583,87.5666 825.783,82.2666 821.183,77.6 L817.883,77.7 C816.949,77.7 815.616,77.6333 813.883,77.5 L813.883,95.4 C813.883,98.7333 814.333,100.983 815.233,102.15 C816.133,103.317 817.883,103.967 820.483,104.1 C820.816,105.1 820.983,106.533 820.983,108.4 C818.116,108.2 814.149,108.1 809.083,108.1 C804.083,108.1 800.083,108.2 797.083,108.4 C797.083,106.6 797.249,105.167 797.583,104.1 C800.316,103.967 802.149,103.317 803.083,102.15 C804.016,100.983 804.483,98.7333 804.483,95.4 L804.483,53.2 C804.483,49.8666 803.999,47.5833 803.033,46.35 C802.066,45.1166 800.249,44.5 797.583,44.5 C797.249,43.4333 797.083,42.0333 797.083,40.3 C799.749,40.4333 803.749,40.5 809.083,40.5 C812.749,40.5 815.516,40.4666 817.383,40.4 L825.783,40.3 C832.983,40.3 838.416,41.85 842.083,44.95 C845.749,48.05 847.583,52.1 847.583,57.1 C847.583,61.5 846.116,65.2833 843.183,68.45 C840.249,71.6166 836.149,73.9 830.883,75.3 C832.949,77.2333 834.683,79.2166 836.083,81.25 C837.483,83.2833 839.449,86.6 841.983,91.2 C844.449,95.6666 846.816,98.9 849.083,100.9 M818.283,73 C824.083,73 828.783,71.75 832.383,69.25 C835.983,66.75 837.783,63.0333 837.783,58.1 C837.783,53.6333 836.466,50.15 833.833,47.65 C831.199,45.15 827.016,43.9 821.283,43.9 C818.883,43.9 816.416,44.1666 813.883,44.7 L813.883,72.7 C815.483,72.9 816.949,73 818.283,73 Z" style="stroke:none;fill-rule:nonzero;fill:#000000;fill-opacity:1;"/>
        </g>
        <g id="Shape2">
            <desc shapeID="2" type="2" basicInfo-basicType="0" basicInfo-roundedRectRadius="12" basicInfo-polygonSides="6" basicInfo-starPoints="5" bounding="rect(-500,-62.5,1000,125)" text="CONTEMPORANEA" font-familyName="Vollkorn" font-pixelSize="100" font-bold="1" font-underline="0" font-alignment="1" strokeStyle="0" markerStart="0" markerEnd="0" shadowEnabled="0" shadowOffsetX="0" shadowOffsetY="2" shadowBlur="4" shadowOpacity="160" blurEnabled="0" blurRadius="4" transform="matrix(1,0,0,1,499.93,166.188)" pers-center="0,0" pers-size="0,0" pers-start="0,0" pers-end="0,0" locked="0" mesh="" flag=""/>
            <path id="shapePath2" d="M99.1581,153.685 C97.6247,154.485 95.0247,154.885 91.3581,154.885 C91.2247,149.152 90.0914,145.085 87.9581,142.685 C85.8247,140.285 82.7581,139.085 78.7581,139.085 C72.4914,139.085 67.8581,141.518 64.8581,146.385 C61.8581,151.252 60.3581,157.352 60.3581,164.685 C60.3581,173.485 62.2747,180.652 66.1081,186.185 C69.9414,191.718 75.4581,194.485 82.6581,194.485 C85.3247,194.485 88.0914,194.052 90.9581,193.185 C93.8247,192.318 96.6247,191.085 99.3581,189.485 C99.8914,189.952 100.375,190.602 100.808,191.435 C101.241,192.268 101.525,193.085 101.658,193.885 C98.3247,196.618 94.7081,198.718 90.808,200.185 C86.9081,201.652 82.4581,202.385 77.4581,202.385 C70.9914,202.385 65.2414,200.902 60.2081,197.935 C55.1747,194.968 51.2581,190.835 48.4581,185.535 C45.6581,180.235 44.2581,174.152 44.2581,167.285 C44.2581,160.018 45.8247,153.802 48.9581,148.635 C52.0914,143.468 56.2414,139.568 61.4081,136.935 C66.5747,134.302 72.1914,132.985 78.2581,132.985 C85.6581,132.985 92.9914,134.718 100.258,138.185 C99.5247,142.385 99.1581,147.552 99.1581,153.685 M159.055,137.185 C164.188,139.985 168.188,143.935 171.055,149.035 C173.922,154.135 175.355,160.018 175.355,166.685 C175.355,173.552 173.938,179.685 171.105,185.085 C168.272,190.485 164.272,194.718 159.105,197.785 C153.938,200.852 148.022,202.385 141.355,202.385 C134.555,202.385 128.605,200.902 123.505,197.935 C118.405,194.968 114.472,190.835 111.705,185.535 C108.938,180.235 107.555,174.185 107.555,167.385 C107.555,160.518 109.005,154.485 111.905,149.285 C114.805,144.085 118.822,140.068 123.955,137.235 C129.088,134.402 134.888,132.985 141.355,132.985 C148.022,132.985 153.922,134.385 159.055,137.185 M155.005,188.485 C157.905,183.552 159.355,177.052 159.355,168.985 C159.355,163.518 158.538,158.518 156.905,153.985 C155.272,149.452 152.955,145.868 149.955,143.235 C146.955,140.602 143.555,139.285 139.755,139.285 C134.822,139.285 130.888,141.568 127.955,146.135 C125.022,150.702 123.555,156.952 123.555,164.885 C123.555,170.485 124.288,175.652 125.755,180.385 C127.222,185.118 129.405,188.885 132.305,191.685 C135.205,194.485 138.755,195.885 142.955,195.885 C148.088,195.885 152.105,193.418 155.005,188.485 M247.852,133.585 C247.852,136.118 247.652,138.185 247.252,139.785 C245.585,139.918 244.318,140.385 243.452,141.185 C242.585,141.985 241.985,143.368 241.652,145.335 C241.318,147.302 241.152,150.218 241.152,154.085 L241.152,201.685 C239.618,202.152 237.318,202.385 234.252,202.385 L196.852,152.585 L196.852,181.085 C196.852,184.952 197.052,187.885 197.452,189.885 C197.852,191.885 198.568,193.302 199.602,194.135 C200.635,194.968 202.185,195.452 204.252,195.585 C204.718,196.918 204.952,198.985 204.952,201.785 C202.085,201.585 198.352,201.485 193.752,201.485 L187.752,201.485 C184.885,201.485 183.018,201.518 182.152,201.585 C182.152,198.918 182.385,196.918 182.852,195.585 C184.852,195.452 186.385,194.952 187.452,194.085 C188.518,193.218 189.285,191.785 189.752,189.785 C190.218,187.785 190.452,184.885 190.452,181.085 L190.452,144.085 L189.452,142.785 C188.718,141.785 187.918,141.085 187.052,140.685 C186.185,140.285 184.785,139.985 182.852,139.785 C182.385,138.118 182.152,136.052 182.152,133.585 C184.552,133.785 188.118,133.885 192.852,133.885 C197.518,133.885 200.618,133.785 202.152,133.585 L234.652,177.485 L234.652,154.085 C234.652,150.218 234.452,147.318 234.052,145.385 C233.652,143.452 232.902,142.085 231.802,141.285 C230.702,140.485 229.052,139.985 226.852,139.785 C226.452,137.918 226.252,135.852 226.252,133.585 C229.185,133.785 233.018,133.885 237.752,133.885 C242.018,133.885 245.385,133.785 247.852,133.585 M314.752,151.285 C312.752,152.152 310.085,152.585 306.752,152.585 C306.218,148.185 305.085,144.952 303.352,142.885 C301.618,140.818 298.985,139.785 295.452,139.785 L291.952,139.785 L291.952,185.485 C291.952,188.285 292.185,190.352 292.652,191.685 C293.118,193.018 293.952,193.968 295.152,194.535 C296.352,195.102 298.252,195.452 300.852,195.585 C301.385,196.852 301.652,198.918 301.652,201.785 C297.785,201.585 292.252,201.485 285.052,201.485 C276.652,201.485 270.418,201.585 266.352,201.785 C266.352,199.452 266.652,197.385 267.252,195.585 C269.852,195.452 271.802,195.102 273.102,194.535 C274.402,193.968 275.318,193.002 275.852,191.635 C276.385,190.268 276.652,188.218 276.652,185.485 L276.652,139.785 L274.352,139.785 C270.418,139.785 267.585,140.785 265.852,142.785 C264.118,144.785 262.752,148.052 261.752,152.585 C258.152,152.585 255.518,152.152 253.852,151.285 C254.452,148.418 254.952,145.385 255.352,142.185 C255.752,138.985 255.952,136.118 255.952,133.585 C260.752,133.785 270.318,133.885 284.652,133.885 C296.585,133.885 306.085,133.785 313.152,133.585 C313.018,138.785 313.552,144.685 314.752,151.285 M374.142,185.085 C372.809,189.152 371.776,194.685 371.042,201.685 C364.376,201.552 356.376,201.485 347.042,201.485 C337.376,201.485 327.842,201.585 318.442,201.785 C318.442,199.118 318.642,197.052 319.042,195.585 C320.909,195.452 322.326,195.102 323.292,194.535 C324.259,193.968 324.926,192.968 325.292,191.535 C325.659,190.102 325.842,187.918 325.842,184.985 L325.842,149.785 C325.842,147.052 325.659,145.035 325.292,143.735 C324.926,142.435 324.276,141.502 323.342,140.935 C322.409,140.368 320.976,139.985 319.042,139.785 C318.642,138.518 318.442,136.452 318.442,133.585 C323.642,133.785 331.142,133.885 340.942,133.885 C354.542,133.885 363.709,133.785 368.442,133.585 C368.576,136.385 368.826,139.385 369.192,142.585 C369.559,145.785 370.009,148.418 370.542,150.485 C368.542,151.485 366.009,151.985 362.942,151.985 C362.342,148.118 360.976,145.118 358.842,142.985 C356.709,140.852 353.076,139.785 347.942,139.785 L341.042,139.785 L341.042,164.585 L343.942,164.585 C347.542,164.585 349.992,164.068 351.292,163.035 C352.592,162.002 353.276,160.018 353.342,157.085 C355.342,156.418 357.709,156.085 360.442,156.085 C360.176,160.485 360.042,164.285 360.042,167.485 C360.042,171.152 360.176,175.052 360.442,179.185 C357.376,179.185 355.076,178.918 353.542,178.385 C353.276,175.385 352.476,173.352 351.142,172.285 C349.809,171.218 347.409,170.685 343.942,170.685 L341.042,170.685 L341.042,184.685 C341.042,187.552 341.292,189.735 341.792,191.235 C342.292,192.735 343.126,193.785 344.292,194.385 C345.459,194.985 347.176,195.285 349.442,195.285 L350.642,195.285 C353.976,195.285 356.642,194.835 358.642,193.935 C360.642,193.035 362.209,191.668 363.342,189.835 C364.476,188.002 365.542,185.452 366.542,182.185 C370.209,182.718 372.742,183.685 374.142,185.085 M471.536,201.785 C468.736,201.585 463.336,201.485 455.336,201.485 C451.67,201.485 447.036,201.585 441.436,201.785 C441.436,199.852 441.67,197.785 442.136,195.585 C444.603,195.318 446.27,194.768 447.136,193.935 C448.003,193.102 448.436,191.518 448.436,189.185 C448.436,188.452 448.303,186.552 448.036,183.485 L444.836,152.885 L425.236,201.585 C423.903,202.118 421.903,202.385 419.236,202.385 L397.136,153.085 L394.436,179.985 C394.17,182.318 394.036,184.485 394.036,186.485 C394.036,189.818 394.536,192.118 395.536,193.385 C396.536,194.652 398.236,195.385 400.636,195.585 C401.036,197.118 401.236,199.185 401.236,201.785 C398.77,201.585 395.17,201.485 390.436,201.485 C387.37,201.485 383.536,201.585 378.936,201.785 C378.936,199.452 379.17,197.385 379.636,195.585 C381.436,195.452 382.87,194.935 383.936,194.035 C385.003,193.135 385.853,191.585 386.486,189.385 C387.12,187.185 387.636,183.985 388.036,179.785 L390.636,150.485 C390.77,148.752 390.836,147.552 390.836,146.885 C390.836,144.218 390.336,142.368 389.336,141.335 C388.336,140.302 386.636,139.785 384.236,139.785 C383.77,138.318 383.536,136.252 383.536,133.585 C386.136,133.785 389.87,133.885 394.736,133.885 C399.67,133.885 403.303,133.785 405.636,133.585 L426.836,182.185 L445.136,133.585 C448.136,133.785 451.97,133.885 456.636,133.885 C461.036,133.885 464.67,133.785 467.536,133.585 C467.536,136.118 467.303,138.185 466.836,139.785 C464.436,139.785 462.703,140.352 461.636,141.485 C460.57,142.618 460.036,144.618 460.036,147.485 C460.036,148.085 460.103,149.185 460.236,150.785 L463.436,182.285 C463.836,186.018 464.286,188.768 464.786,190.535 C465.286,192.302 465.986,193.518 466.886,194.185 C467.786,194.852 469.136,195.285 470.936,195.485 C471.336,197.018 471.536,199.118 471.536,201.785 M515.433,168.285 C517.5,165.952 518.533,162.085 518.533,156.685 C518.533,151.618 517.416,147.568 515.183,144.535 C512.95,141.502 509.6,139.985 505.133,139.985 C503.733,139.985 502.2,140.218 500.533,140.685 L500.533,183.985 C500.533,186.918 500.85,189.185 501.483,190.785 C502.116,192.385 503.133,193.535 504.533,194.235 C505.933,194.935 507.933,195.385 510.533,195.585 C511,196.918 511.233,198.985 511.233,201.785 C507.766,201.585 502.4,201.485 495.133,201.485 C487.266,201.485 481.5,201.585 477.833,201.785 C477.833,199.118 478.033,197.052 478.433,195.585 C480.3,195.452 481.7,195.102 482.633,194.535 C483.566,193.968 484.233,193.002 484.633,191.635 C485.033,190.268 485.233,188.218 485.233,185.485 L485.233,149.785 C485.233,147.052 485.05,145.035 484.683,143.735 C484.316,142.435 483.683,141.502 482.783,140.935 C481.883,140.368 480.466,139.985 478.533,139.785 C478.066,137.918 477.833,135.852 477.833,133.585 C483.633,133.785 488.866,133.885 493.533,133.885 C496.6,133.885 499.033,133.852 500.833,133.785 L511.233,133.685 C518.966,133.685 524.633,135.618 528.233,139.485 C531.833,143.352 533.633,148.318 533.633,154.385 C533.633,158.718 532.7,162.702 530.833,166.335 C528.966,169.968 526.283,172.868 522.783,175.035 C519.283,177.202 515.166,178.285 510.433,178.285 C507.5,178.285 505.166,177.952 503.433,177.285 C503.3,176.218 503.233,175.485 503.233,175.085 C503.233,173.818 503.5,172.585 504.033,171.385 C505.1,171.652 506.3,171.785 507.633,171.785 C510.766,171.785 513.366,170.618 515.433,168.285 M592.133,137.185 C597.266,139.985 601.266,143.935 604.133,149.035 C607,154.135 608.433,160.018 608.433,166.685 C608.433,173.552 607.016,179.685 604.183,185.085 C601.35,190.485 597.35,194.718 592.183,197.785 C587.016,200.852 581.1,202.385 574.433,202.385 C567.633,202.385 561.683,200.902 556.583,197.935 C551.483,194.968 547.55,190.835 544.783,185.535 C542.016,180.235 540.633,174.185 540.633,167.385 C540.633,160.518 542.083,154.485 544.983,149.285 C547.883,144.085 551.9,140.068 557.033,137.235 C562.166,134.402 567.966,132.985 574.433,132.985 C581.1,132.985 587,134.385 592.133,137.185 M588.083,188.485 C590.983,183.552 592.433,177.052 592.433,168.985 C592.433,163.518 591.616,158.518 589.983,153.985 C588.35,149.452 586.033,145.868 583.033,143.235 C580.033,140.602 576.633,139.285 572.833,139.285 C567.9,139.285 563.966,141.568 561.033,146.135 C558.1,150.702 556.633,156.952 556.633,164.885 C556.633,170.485 557.366,175.652 558.833,180.385 C560.3,185.118 562.483,188.885 565.383,191.685 C568.283,194.485 571.833,195.885 576.033,195.885 C581.166,195.885 585.183,193.418 588.083,188.485 M674.48,193.135 C676.047,194.502 678.063,195.252 680.53,195.385 C680.53,197.785 680.263,199.885 679.73,201.685 C670.397,201.685 663.83,201.918 660.03,202.385 L653.23,186.985 C651.83,183.852 650.43,181.235 649.03,179.135 C647.63,177.035 645.997,175.152 644.13,173.485 L641.43,173.585 L638.83,173.485 L638.83,184.885 C638.83,187.885 638.997,190.118 639.33,191.585 C639.663,193.052 640.213,194.052 640.98,194.585 C641.747,195.118 642.897,195.452 644.43,195.585 C644.897,196.785 645.13,198.852 645.13,201.785 C640.997,201.585 635.963,201.485 630.03,201.485 C624.63,201.485 619.997,201.585 616.13,201.785 C616.13,199.118 616.363,197.052 616.83,195.585 C618.697,195.452 620.097,195.102 621.03,194.535 C621.963,193.968 622.613,193.002 622.98,191.635 C623.347,190.268 623.53,188.218 623.53,185.485 L623.53,149.685 C623.53,146.952 623.347,144.918 622.98,143.585 C622.613,142.252 621.963,141.318 621.03,140.785 C620.097,140.252 618.663,139.885 616.73,139.685 C616.33,138.018 616.13,135.985 616.13,133.585 C622.33,133.785 627.297,133.885 631.03,133.885 C632.23,133.885 634.63,133.818 638.23,133.685 C643.03,133.552 646.93,133.485 649.93,133.485 C657.663,133.485 663.513,135.152 667.48,138.485 C671.447,141.818 673.43,146.118 673.43,151.385 C673.43,156.518 672.063,160.768 669.33,164.135 C666.597,167.502 662.863,169.785 658.13,170.985 C660.397,172.252 662.197,173.818 663.53,175.685 C664.863,177.552 666.797,180.952 669.33,185.885 C671.197,189.352 672.913,191.768 674.48,193.135 M653.23,163.135 C656.097,160.835 657.53,157.518 657.53,153.185 C657.53,148.852 656.43,145.485 654.23,143.085 C652.03,140.685 648.763,139.485 644.43,139.485 C642.363,139.485 640.497,139.718 638.83,140.185 L638.83,166.285 C640.297,166.485 641.497,166.585 642.43,166.585 C646.763,166.585 650.363,165.435 653.23,163.135 M751.727,201.785 C748.527,201.585 743.927,201.485 737.927,201.485 C731.06,201.485 726.127,201.585 723.127,201.785 C723.127,199.118 723.36,197.052 723.827,195.585 C725.427,195.252 726.594,194.835 727.327,194.335 C728.06,193.835 728.427,193.118 728.427,192.185 C728.427,191.385 727.993,189.952 727.127,187.885 L724.827,182.485 C715.96,182.485 707.827,182.718 700.427,183.185 L699.127,186.485 C698.46,188.352 698.127,189.818 698.127,190.885 C698.127,193.618 699.727,195.185 702.927,195.585 C703.393,197.185 703.627,199.252 703.627,201.785 C701.36,201.585 697.793,201.485 692.927,201.485 C688.793,201.485 685.793,201.585 683.927,201.785 C683.927,199.318 684.193,197.252 684.727,195.585 C686.393,195.318 687.743,194.502 688.777,193.135 C689.81,191.768 691.127,189.118 692.727,185.185 L713.727,133.785 C714.66,133.585 715.61,133.452 716.577,133.385 C717.543,133.318 718.594,133.285 719.727,133.285 L742.627,184.585 C744.027,187.718 745.143,190.018 745.977,191.485 C746.81,192.952 747.594,193.968 748.327,194.535 C749.06,195.102 749.927,195.452 750.927,195.585 C751.46,197.385 751.727,199.452 751.727,201.785 M716.927,164.285 C714.86,159.685 713.293,155.418 712.227,151.485 C710.893,155.885 709.427,160.118 707.827,164.185 L702.827,176.885 L722.327,176.885 L716.927,164.285 M822.321,133.585 C822.321,136.118 822.121,138.185 821.721,139.785 C820.054,139.918 818.787,140.385 817.921,141.185 C817.054,141.985 816.454,143.368 816.121,145.335 C815.787,147.302 815.621,150.218 815.621,154.085 L815.621,201.685 C814.087,202.152 811.787,202.385 808.721,202.385 L771.321,152.585 L771.321,181.085 C771.321,184.952 771.521,187.885 771.921,189.885 C772.321,191.885 773.037,193.302 774.071,194.135 C775.104,194.968 776.654,195.452 778.721,195.585 C779.187,196.918 779.421,198.985 779.421,201.785 C776.554,201.585 772.821,201.485 768.221,201.485 L762.221,201.485 C759.354,201.485 757.487,201.518 756.621,201.585 C756.621,198.918 756.854,196.918 757.321,195.585 C759.321,195.452 760.854,194.952 761.921,194.085 C762.987,193.218 763.754,191.785 764.221,189.785 C764.687,187.785 764.921,184.885 764.921,181.085 L764.921,144.085 L763.921,142.785 C763.187,141.785 762.387,141.085 761.521,140.685 C760.654,140.285 759.254,139.985 757.321,139.785 C756.854,138.118 756.621,136.052 756.621,133.585 C759.021,133.785 762.587,133.885 767.321,133.885 C771.987,133.885 775.087,133.785 776.621,133.585 L809.121,177.485 L809.121,154.085 C809.121,150.218 808.921,147.318 808.521,145.385 C808.121,143.452 807.371,142.085 806.271,141.285 C805.171,140.485 803.521,139.985 801.321,139.785 C800.921,137.918 800.721,135.852 800.721,133.585 C803.654,133.785 807.487,133.885 812.221,133.885 C816.487,133.885 819.854,133.785 822.321,133.585 M885.721,185.085 C884.387,189.152 883.354,194.685 882.621,201.685 C875.954,201.552 867.954,201.485 858.621,201.485 C848.954,201.485 839.421,201.585 830.021,201.785 C830.021,199.118 830.221,197.052 830.621,195.585 C832.487,195.452 833.904,195.102 834.871,194.535 C835.837,193.968 836.504,192.968 836.871,191.535 C837.237,190.102 837.421,187.918 837.421,184.985 L837.421,149.785 C837.421,147.052 837.237,145.035 836.871,143.735 C836.504,142.435 835.854,141.502 834.921,140.935 C833.987,140.368 832.554,139.985 830.621,139.785 C830.221,138.518 830.021,136.452 830.021,133.585 C835.221,133.785 842.721,133.885 852.521,133.885 C866.121,133.885 875.287,133.785 880.021,133.585 C880.154,136.385 880.404,139.385 880.771,142.585 C881.137,145.785 881.587,148.418 882.121,150.485 C880.121,151.485 877.587,151.985 874.521,151.985 C873.921,148.118 872.554,145.118 870.421,142.985 C868.287,140.852 864.654,139.785 859.521,139.785 L852.621,139.785 L852.621,164.585 L855.521,164.585 C859.121,164.585 861.571,164.068 862.871,163.035 C864.171,162.002 864.854,160.018 864.921,157.085 C866.921,156.418 869.287,156.085 872.021,156.085 C871.754,160.485 871.621,164.285 871.621,167.485 C871.621,171.152 871.754,175.052 872.021,179.185 C868.954,179.185 866.654,178.918 865.121,178.385 C864.854,175.385 864.054,173.352 862.721,172.285 C861.387,171.218 858.987,170.685 855.521,170.685 L852.621,170.685 L852.621,184.685 C852.621,187.552 852.871,189.735 853.371,191.235 C853.871,192.735 854.704,193.785 855.871,194.385 C857.037,194.985 858.754,195.285 861.021,195.285 L862.221,195.285 C865.554,195.285 868.221,194.835 870.221,193.935 C872.221,193.035 873.787,191.668 874.921,189.835 C876.054,188.002 877.121,185.452 878.121,182.185 C881.787,182.718 884.321,183.685 885.721,185.085 M957.508,201.785 C954.308,201.585 949.708,201.485 943.708,201.485 C936.841,201.485 931.908,201.585 928.908,201.785 C928.908,199.118 929.141,197.052 929.608,195.585 C931.208,195.252 932.375,194.835 933.108,194.335 C933.841,193.835 934.208,193.118 934.208,192.185 C934.208,191.385 933.775,189.952 932.908,187.885 L930.608,182.485 C921.741,182.485 913.608,182.718 906.208,183.185 L904.908,186.485 C904.241,188.352 903.908,189.818 903.908,190.885 C903.908,193.618 905.508,195.185 908.708,195.585 C909.175,197.185 909.408,199.252 909.408,201.785 C907.141,201.585 903.575,201.485 898.708,201.485 C894.575,201.485 891.575,201.585 889.708,201.785 C889.708,199.318 889.975,197.252 890.508,195.585 C892.175,195.318 893.525,194.502 894.558,193.135 C895.591,191.768 896.908,189.118 898.508,185.185 L919.508,133.785 C920.441,133.585 921.391,133.452 922.358,133.385 C923.325,133.318 924.375,133.285 925.508,133.285 L948.408,184.585 C949.808,187.718 950.925,190.018 951.758,191.485 C952.591,192.952 953.375,193.968 954.108,194.535 C954.841,195.102 955.708,195.452 956.708,195.585 C957.241,197.385 957.508,199.452 957.508,201.785 M922.708,164.285 C920.641,159.685 919.075,155.418 918.008,151.485 C916.675,155.885 915.208,160.118 913.608,164.185 L908.608,176.885 L928.108,176.885 L922.708,164.285 Z" style="stroke:none;fill-rule:nonzero;fill:#000000;fill-opacity:1;"/>
        </g>
        <g id="Shape3">
            <desc shapeID="3" type="0" basicInfo-basicType="2" basicInfo-roundedRectRadius="12" basicInfo-polygonSides="6" basicInfo-starPoints="5" bounding="rect(-497.998,-123,995.996,246)" text="" font-familyName="Vollkorn" font-pixelSize="100" font-bold="1" font-underline="0" font-alignment="1" strokeStyle="0" markerStart="0" markerEnd="0" shadowEnabled="0" shadowOffsetX="0" shadowOffsetY="2" shadowBlur="4" shadowOpacity="160" blurEnabled="0" blurRadius="4" transform="matrix(1.00402,0,0,1.01626,500.883,125)" pers-center="0,0" pers-size="0,0" pers-start="0,0" pers-end="0,0" locked="0" mesh="" flag=""/>
            <path id="shapePath3" d="M0.883057,12.1951 C0.883057,5.45995 6.27722,0 12.9312,0 L988.835,0 C995.489,0 1000.88,5.45995 1000.88,12.1951 L1000.88,237.805 C1000.88,244.54 995.489,250 988.835,250 L12.9312,250 C6.27722,250 0.883057,244.54 0.883057,237.805 L0.883057,12.1951 Z" style="stroke:#323232;stroke-opacity:1;stroke-width:6;stroke-linejoin:miter;stroke-miterlimit:2;stroke-linecap:round;fill-rule:evenodd;fill:#000000;fill-opacity:0;"/>
        </g>
    </g>
</svg>
