<svg xmlns="http://www.w3.org/2000/svg" width="512" height="512"><path d="M158.13 256c-28.807.95-52.358 13.14-70.652 36.57H51.743c-14.586 0-26.85-3.85-36.794-11.555C5.005 273.31.022 262.022 0 247.15c0-67.243 11.024-100.864 33.073-100.864 1.07 0 4.938 2 11.605 5.997 6.666 4 15.336 8.046 26.007 12.142 10.672 4.096 21.253 6.144 31.742 6.144 11.9 0 23.72-2.195 35.462-6.584-.888 7.046-1.332 13.337-1.332 18.87 0 26.48 7.202 50.86 21.605 73.144h-.034m285.574 182.016c0 22.845-6.485 40.887-19.455 54.126C411.28 505.382 394.03 512 372.505 512H139.46c-21.503 0-38.75-6.62-51.743-19.858-12.993-13.24-19.478-31.28-19.455-54.126 0-10.094.307-19.956.922-29.586.614-9.63 1.854-20.017 3.72-31.16 1.866-11.14 4.22-21.48 7.065-31.012 2.843-9.533 6.666-18.822 11.467-27.867 4.8-9.044 10.308-16.76 16.52-23.15 6.21-6.387 13.81-11.482 22.8-15.286 8.987-3.803 18.896-5.705 29.727-5.705 1.775 0 5.598 2.047 11.468 6.143s12.356 8.668 19.455 13.714c7.1 5.047 16.61 9.62 28.533 13.715 11.924 4.096 23.926 6.144 36.01 6.144 12.08 0 24.084-2.048 36.007-6.144 11.923-4.096 21.434-8.668 28.534-13.715 7.1-5.046 13.585-9.618 19.455-13.714 5.87-4.096 9.694-6.144 11.468-6.144 10.854 0 20.763 1.9 29.728 5.704 8.967 3.804 16.566 8.9 22.8 15.287 6.236 6.39 11.742 14.106 16.52 23.15 4.78 9.046 8.6 18.335 11.468 27.868 2.868 9.533 5.223 19.87 7.066 31.013s3.083 21.53 3.72 31.16c.637 9.63.944 19.492.92 29.586h.07M170.654 73.143c0 20.187-6.666 37.425-20 51.712-13.333 14.287-29.42 21.43-48.26 21.43-18.84 0-34.928-7.143-48.262-21.43-13.334-14.287-20-31.525-20-51.712 0-20.188 6.666-37.425 20-51.712C67.466 7.145 83.552 0 102.392 0c18.84 0 34.93 7.144 48.262 21.43 13.334 14.288 20 31.525 20 51.713m187.722 109.714c0 30.28-10 56.137-30 77.568-20.002 21.43-44.133 32.146-72.393 32.146-28.26 0-52.39-10.714-72.392-32.145-20-21.43-30-47.287-30-77.568 0-30.28 10-56.137 30-77.568 20.002-21.432 44.132-32.147 72.393-32.147 28.26 0 52.39 10.715 72.392 32.146 20 21.43 30 47.286 30 77.567m153.59 64.293c0 14.848-4.982 26.136-14.95 33.865-9.965 7.73-22.23 11.58-36.792 11.556h-35.735c-18.317-23.43-41.868-35.62-70.65-36.57 14.402-22.284 21.604-46.665 21.604-73.143 0-5.534-.444-11.825-1.33-18.87 11.74 4.388 23.56 6.582 35.46 6.582 10.49 0 21.07-2.05 31.743-6.145 10.67-4.096 19.34-8.143 26.007-12.142 6.667-3.998 10.536-5.997 11.605-5.997 22.05 0 33.073 33.62 33.073 100.864h-.034m-34.13-174.007c0 20.187-6.668 37.425-20.002 51.712-13.334 14.287-29.42 21.43-48.26 21.43-18.842 0-34.93-7.143-48.263-21.43-13.333-14.287-20-31.525-20-51.712 0-20.188 6.667-37.425 20-51.712C374.646 7.145 390.733 0 409.574 0c18.84 0 34.927 7.144 48.26 21.43 13.335 14.288 20.002 31.525 20.002 51.713z" fill="#444"/></svg>